<mxfile host="Electron" agent="Mozilla/5.0 (Windows NT 10.0; Win64; x64) AppleWebKit/537.36 (KHTML, like Gecko) draw.io/28.0.6 Chrome/138.0.7204.100 Electron/37.2.3 Safari/537.36" version="28.0.6">
  <diagram name="Page-1" id="R90nyv3Rz4XIFROkiVHW">
    <mxGraphModel dx="2194" dy="1491" grid="1" gridSize="10" guides="1" tooltips="1" connect="1" arrows="1" fold="1" page="1" pageScale="1" pageWidth="1600" pageHeight="1200" math="0" shadow="0">
      <root>
        <mxCell id="0" />
        <mxCell id="1" parent="0" />
        <mxCell id="3E_d9uGPmS8snrze4PGS-1" value="" style="whiteSpace=wrap;html=1;shadow=0;fillColor=none;fontStyle=1" parent="1" vertex="1">
          <mxGeometry x="40" y="60" width="840" height="1090" as="geometry" />
        </mxCell>
        <mxCell id="1lQt2iCKs8pIlGNOvXYT-44" value="" style="whiteSpace=wrap;html=1;opacity=90;perimeterSpacing=1;fillColor=none;fontStyle=1" vertex="1" parent="1">
          <mxGeometry x="240" y="96.67" width="470" height="323.33" as="geometry" />
        </mxCell>
        <mxCell id="1lQt2iCKs8pIlGNOvXYT-43" value="" style="whiteSpace=wrap;html=1;opacity=90;perimeterSpacing=1;fillColor=none;fontStyle=1" vertex="1" parent="1">
          <mxGeometry x="240" y="460" width="470" height="330" as="geometry" />
        </mxCell>
        <mxCell id="1lQt2iCKs8pIlGNOvXYT-42" value="" style="whiteSpace=wrap;html=1;opacity=90;perimeterSpacing=1;fillColor=none;fontStyle=1" vertex="1" parent="1">
          <mxGeometry x="240" y="820" width="470" height="300" as="geometry" />
        </mxCell>
        <mxCell id="GmHCTYgidwJcOvD8zUk5-6" style="edgeStyle=orthogonalEdgeStyle;rounded=0;orthogonalLoop=1;jettySize=auto;html=1;exitX=0.5;exitY=1;exitDx=0;exitDy=0;fontStyle=1" parent="1" source="3E_d9uGPmS8snrze4PGS-14" target="GmHCTYgidwJcOvD8zUk5-4" edge="1">
          <mxGeometry relative="1" as="geometry" />
        </mxCell>
        <mxCell id="1lQt2iCKs8pIlGNOvXYT-59" style="rounded=0;orthogonalLoop=1;jettySize=auto;html=1;exitX=1;exitY=0.5;exitDx=0;exitDy=0;entryX=1;entryY=0.5;entryDx=0;entryDy=0;" edge="1" parent="1" source="3E_d9uGPmS8snrze4PGS-14" target="1lQt2iCKs8pIlGNOvXYT-44">
          <mxGeometry relative="1" as="geometry">
            <mxPoint x="640.0000000000002" y="260" as="targetPoint" />
          </mxGeometry>
        </mxCell>
        <mxCell id="3E_d9uGPmS8snrze4PGS-14" value="wn1" style="rounded=1;whiteSpace=wrap;html=1;shadow=0;fontStyle=1" parent="1" vertex="1">
          <mxGeometry x="436" y="110" width="120" height="60" as="geometry" />
        </mxCell>
        <mxCell id="1lQt2iCKs8pIlGNOvXYT-34" style="edgeStyle=orthogonalEdgeStyle;rounded=0;orthogonalLoop=1;jettySize=auto;html=1;exitX=0.5;exitY=1;exitDx=0;exitDy=0;entryX=0.5;entryY=0;entryDx=0;entryDy=0;fontStyle=1" edge="1" parent="1" source="3E_d9uGPmS8snrze4PGS-16" target="GmHCTYgidwJcOvD8zUk5-22">
          <mxGeometry relative="1" as="geometry" />
        </mxCell>
        <mxCell id="1lQt2iCKs8pIlGNOvXYT-56" style="rounded=0;orthogonalLoop=1;jettySize=auto;html=1;exitX=1;exitY=0.5;exitDx=0;exitDy=0;entryX=0.997;entryY=0.516;entryDx=0;entryDy=0;entryPerimeter=0;" edge="1" parent="1" source="3E_d9uGPmS8snrze4PGS-16" target="1lQt2iCKs8pIlGNOvXYT-43">
          <mxGeometry relative="1" as="geometry">
            <mxPoint x="640.0000000000002" y="630" as="targetPoint" />
          </mxGeometry>
        </mxCell>
        <mxCell id="3E_d9uGPmS8snrze4PGS-16" value="wn" style="rounded=1;whiteSpace=wrap;html=1;shadow=0;fontStyle=1" parent="1" vertex="1">
          <mxGeometry x="451" y="494.65999999999997" width="120" height="60" as="geometry" />
        </mxCell>
        <mxCell id="1lQt2iCKs8pIlGNOvXYT-36" style="edgeStyle=orthogonalEdgeStyle;rounded=0;orthogonalLoop=1;jettySize=auto;html=1;exitX=0.5;exitY=1;exitDx=0;exitDy=0;entryX=0.5;entryY=0;entryDx=0;entryDy=0;fontStyle=1" edge="1" parent="1" source="3E_d9uGPmS8snrze4PGS-18" target="GmHCTYgidwJcOvD8zUk5-28">
          <mxGeometry relative="1" as="geometry" />
        </mxCell>
        <mxCell id="1lQt2iCKs8pIlGNOvXYT-53" style="rounded=0;orthogonalLoop=1;jettySize=auto;html=1;exitX=1;exitY=0.5;exitDx=0;exitDy=0;entryX=1;entryY=0.5;entryDx=0;entryDy=0;" edge="1" parent="1" source="3E_d9uGPmS8snrze4PGS-18" target="1lQt2iCKs8pIlGNOvXYT-42">
          <mxGeometry relative="1" as="geometry">
            <mxPoint x="640.0000000000002" y="970" as="targetPoint" />
          </mxGeometry>
        </mxCell>
        <mxCell id="3E_d9uGPmS8snrze4PGS-18" value="wn" style="rounded=1;whiteSpace=wrap;html=1;shadow=0;fontStyle=1" parent="1" vertex="1">
          <mxGeometry x="451" y="840" width="120" height="60" as="geometry" />
        </mxCell>
        <mxCell id="3E_d9uGPmS8snrze4PGS-26" style="edgeStyle=none;rounded=0;orthogonalLoop=1;jettySize=auto;html=1;exitX=1;exitY=0.5;exitDx=0;exitDy=0;entryX=0;entryY=0.5;entryDx=0;entryDy=0;shadow=0;fontStyle=1" parent="1" source="3E_d9uGPmS8snrze4PGS-25" edge="1" target="GmHCTYgidwJcOvD8zUk5-52">
          <mxGeometry relative="1" as="geometry">
            <mxPoint x="270" y="390" as="targetPoint" />
            <Array as="points">
              <mxPoint x="220" y="255" />
            </Array>
          </mxGeometry>
        </mxCell>
        <mxCell id="3E_d9uGPmS8snrze4PGS-27" style="edgeStyle=none;rounded=0;orthogonalLoop=1;jettySize=auto;html=1;exitX=1;exitY=0.5;exitDx=0;exitDy=0;shadow=0;entryX=0;entryY=0.5;entryDx=0;entryDy=0;fontStyle=1" parent="1" source="3E_d9uGPmS8snrze4PGS-25" edge="1" target="GmHCTYgidwJcOvD8zUk5-53">
          <mxGeometry relative="1" as="geometry">
            <mxPoint x="270" y="610" as="targetPoint" />
          </mxGeometry>
        </mxCell>
        <mxCell id="3E_d9uGPmS8snrze4PGS-28" style="edgeStyle=none;rounded=0;orthogonalLoop=1;jettySize=auto;html=1;exitX=1;exitY=0.5;exitDx=0;exitDy=0;shadow=0;entryX=0;entryY=0.5;entryDx=0;entryDy=0;fontStyle=1" parent="1" source="3E_d9uGPmS8snrze4PGS-25" edge="1" target="GmHCTYgidwJcOvD8zUk5-54">
          <mxGeometry relative="1" as="geometry">
            <mxPoint x="270" y="860" as="targetPoint" />
            <Array as="points">
              <mxPoint x="220" y="970" />
            </Array>
          </mxGeometry>
        </mxCell>
        <mxCell id="3E_d9uGPmS8snrze4PGS-25" value="Final point" style="rounded=1;whiteSpace=wrap;html=1;shadow=0;fontStyle=1" parent="1" vertex="1">
          <mxGeometry x="52" y="600" width="120" height="60" as="geometry" />
        </mxCell>
        <mxCell id="3E_d9uGPmS8snrze4PGS-33" value="" style="edgeStyle=none;rounded=0;orthogonalLoop=1;jettySize=auto;html=1;fontStyle=1" parent="1" source="3E_d9uGPmS8snrze4PGS-29" target="3E_d9uGPmS8snrze4PGS-32" edge="1">
          <mxGeometry relative="1" as="geometry" />
        </mxCell>
        <mxCell id="3E_d9uGPmS8snrze4PGS-29" value="" style="ellipse;whiteSpace=wrap;html=1;fontStyle=1" parent="1" vertex="1">
          <mxGeometry x="980" y="615" width="30" height="30" as="geometry" />
        </mxCell>
        <mxCell id="3E_d9uGPmS8snrze4PGS-35" value="" style="edgeStyle=none;rounded=0;orthogonalLoop=1;jettySize=auto;html=1;fontStyle=1" parent="1" source="3E_d9uGPmS8snrze4PGS-32" target="3E_d9uGPmS8snrze4PGS-34" edge="1">
          <mxGeometry relative="1" as="geometry" />
        </mxCell>
        <mxCell id="3E_d9uGPmS8snrze4PGS-32" value="PD Controller" style="whiteSpace=wrap;html=1;fontStyle=1" parent="1" vertex="1">
          <mxGeometry x="1060" y="600" width="120" height="60" as="geometry" />
        </mxCell>
        <mxCell id="3E_d9uGPmS8snrze4PGS-37" value="" style="edgeStyle=none;rounded=0;orthogonalLoop=1;jettySize=auto;html=1;entryX=-0.028;entryY=0.503;entryDx=0;entryDy=0;entryPerimeter=0;fontStyle=1" parent="1" source="3E_d9uGPmS8snrze4PGS-34" target="3E_d9uGPmS8snrze4PGS-50" edge="1">
          <mxGeometry relative="1" as="geometry">
            <mxPoint x="1385" y="610" as="targetPoint" />
          </mxGeometry>
        </mxCell>
        <mxCell id="3E_d9uGPmS8snrze4PGS-34" value="Plant" style="whiteSpace=wrap;html=1;fontStyle=1" parent="1" vertex="1">
          <mxGeometry x="1240" y="595" width="120" height="60" as="geometry" />
        </mxCell>
        <mxCell id="3E_d9uGPmS8snrze4PGS-39" value="" style="edgeStyle=none;rounded=0;orthogonalLoop=1;jettySize=auto;html=1;exitX=1;exitY=0.5;exitDx=0;exitDy=0;fontStyle=1" parent="1" source="3E_d9uGPmS8snrze4PGS-50" target="3E_d9uGPmS8snrze4PGS-38" edge="1">
          <mxGeometry relative="1" as="geometry">
            <mxPoint x="1430" y="610" as="sourcePoint" />
          </mxGeometry>
        </mxCell>
        <mxCell id="3E_d9uGPmS8snrze4PGS-40" style="edgeStyle=none;rounded=0;orthogonalLoop=1;jettySize=auto;html=1;exitX=1;exitY=0.5;exitDx=0;exitDy=0;entryX=0.5;entryY=1;entryDx=0;entryDy=0;fontStyle=1" parent="1" source="3E_d9uGPmS8snrze4PGS-38" target="3E_d9uGPmS8snrze4PGS-29" edge="1">
          <mxGeometry relative="1" as="geometry">
            <Array as="points">
              <mxPoint x="1570" y="625" />
              <mxPoint x="1570" y="701" />
              <mxPoint x="1570" y="791" />
              <mxPoint x="995" y="790" />
            </Array>
          </mxGeometry>
        </mxCell>
        <mxCell id="3E_d9uGPmS8snrze4PGS-38" value="1/s" style="whiteSpace=wrap;html=1;fontStyle=1" parent="1" vertex="1">
          <mxGeometry x="1500" y="595" width="35" height="60" as="geometry" />
        </mxCell>
        <mxCell id="3E_d9uGPmS8snrze4PGS-41" value="qActual" style="text;html=1;align=center;verticalAlign=middle;resizable=0;points=[];autosize=1;strokeColor=none;fillColor=none;fontStyle=1" parent="1" vertex="1">
          <mxGeometry x="930" y="670" width="60" height="30" as="geometry" />
        </mxCell>
        <mxCell id="3E_d9uGPmS8snrze4PGS-50" value="1/s" style="whiteSpace=wrap;html=1;fontStyle=1" parent="1" vertex="1">
          <mxGeometry x="1400" y="595" width="35" height="60" as="geometry" />
        </mxCell>
        <mxCell id="1lQt2iCKs8pIlGNOvXYT-2" style="edgeStyle=orthogonalEdgeStyle;rounded=0;orthogonalLoop=1;jettySize=auto;html=1;exitX=0.5;exitY=1;exitDx=0;exitDy=0;entryX=0.5;entryY=0;entryDx=0;entryDy=0;fontStyle=1" edge="1" parent="1" source="GmHCTYgidwJcOvD8zUk5-4" target="1lQt2iCKs8pIlGNOvXYT-1">
          <mxGeometry relative="1" as="geometry" />
        </mxCell>
        <mxCell id="1lQt2iCKs8pIlGNOvXYT-60" style="edgeStyle=orthogonalEdgeStyle;rounded=0;orthogonalLoop=1;jettySize=auto;html=1;exitX=1;exitY=0.5;exitDx=0;exitDy=0;dashed=1;dashPattern=12 12;entryX=1;entryY=0.5;entryDx=0;entryDy=0;" edge="1" parent="1" source="GmHCTYgidwJcOvD8zUk5-4" target="1lQt2iCKs8pIlGNOvXYT-44">
          <mxGeometry relative="1" as="geometry">
            <mxPoint x="640.0000000000002" y="255.2608695652175" as="targetPoint" />
            <Array as="points">
              <mxPoint x="560" y="260" />
              <mxPoint x="620" y="260" />
              <mxPoint x="620" y="258" />
            </Array>
          </mxGeometry>
        </mxCell>
        <mxCell id="GmHCTYgidwJcOvD8zUk5-4" value="wn2" style="rounded=1;whiteSpace=wrap;html=1;shadow=0;dashed=1;dashPattern=12 12;fontStyle=1" parent="1" vertex="1">
          <mxGeometry x="436" y="228.34" width="120" height="60" as="geometry" />
        </mxCell>
        <mxCell id="GmHCTYgidwJcOvD8zUk5-13" value="" style="endArrow=classic;html=1;rounded=0;entryX=0;entryY=0.5;entryDx=0;entryDy=0;exitX=1;exitY=0.5;exitDx=0;exitDy=0;fontStyle=1" parent="1" target="3E_d9uGPmS8snrze4PGS-14" edge="1" source="GmHCTYgidwJcOvD8zUk5-52">
          <mxGeometry width="50" height="50" relative="1" as="geometry">
            <mxPoint x="320" y="390" as="sourcePoint" />
            <mxPoint x="370" y="340" as="targetPoint" />
          </mxGeometry>
        </mxCell>
        <mxCell id="GmHCTYgidwJcOvD8zUk5-14" value="" style="endArrow=classic;html=1;rounded=0;entryX=0;entryY=0.5;entryDx=0;entryDy=0;dashed=1;dashPattern=12 12;exitX=1;exitY=0.5;exitDx=0;exitDy=0;fontStyle=1" parent="1" target="GmHCTYgidwJcOvD8zUk5-4" edge="1" source="GmHCTYgidwJcOvD8zUk5-52">
          <mxGeometry width="50" height="50" relative="1" as="geometry">
            <mxPoint x="320" y="390" as="sourcePoint" />
            <mxPoint x="455" y="340" as="targetPoint" />
          </mxGeometry>
        </mxCell>
        <mxCell id="GmHCTYgidwJcOvD8zUk5-16" value="" style="endArrow=classic;html=1;rounded=0;entryX=0;entryY=0.5;entryDx=0;entryDy=0;exitX=1;exitY=0.5;exitDx=0;exitDy=0;fontStyle=1" parent="1" edge="1" target="3E_d9uGPmS8snrze4PGS-16" source="GmHCTYgidwJcOvD8zUk5-53">
          <mxGeometry width="50" height="50" relative="1" as="geometry">
            <mxPoint x="320" y="450" as="sourcePoint" />
            <mxPoint x="455" y="400" as="targetPoint" />
          </mxGeometry>
        </mxCell>
        <mxCell id="GmHCTYgidwJcOvD8zUk5-17" value="" style="endArrow=classic;html=1;rounded=0;entryX=0;entryY=0.5;entryDx=0;entryDy=0;dashed=1;dashPattern=12 12;exitX=1;exitY=0.5;exitDx=0;exitDy=0;fontStyle=1" parent="1" edge="1" target="GmHCTYgidwJcOvD8zUk5-22" source="GmHCTYgidwJcOvD8zUk5-53">
          <mxGeometry width="50" height="50" relative="1" as="geometry">
            <mxPoint x="310" y="465" as="sourcePoint" />
            <mxPoint x="445" y="515" as="targetPoint" />
          </mxGeometry>
        </mxCell>
        <mxCell id="GmHCTYgidwJcOvD8zUk5-19" value="" style="endArrow=classic;html=1;rounded=0;entryX=0;entryY=0.5;entryDx=0;entryDy=0;exitX=1;exitY=0.5;exitDx=0;exitDy=0;fontStyle=1" parent="1" edge="1" target="3E_d9uGPmS8snrze4PGS-18" source="GmHCTYgidwJcOvD8zUk5-54">
          <mxGeometry width="50" height="50" relative="1" as="geometry">
            <mxPoint x="320" y="860" as="sourcePoint" />
            <mxPoint x="455" y="810" as="targetPoint" />
          </mxGeometry>
        </mxCell>
        <mxCell id="1lQt2iCKs8pIlGNOvXYT-35" style="edgeStyle=orthogonalEdgeStyle;rounded=0;orthogonalLoop=1;jettySize=auto;html=1;exitX=0.5;exitY=1;exitDx=0;exitDy=0;entryX=0.5;entryY=0;entryDx=0;entryDy=0;fontStyle=1" edge="1" parent="1" source="GmHCTYgidwJcOvD8zUk5-22" target="1lQt2iCKs8pIlGNOvXYT-6">
          <mxGeometry relative="1" as="geometry" />
        </mxCell>
        <mxCell id="1lQt2iCKs8pIlGNOvXYT-57" style="rounded=0;orthogonalLoop=1;jettySize=auto;html=1;exitX=1;exitY=0.5;exitDx=0;exitDy=0;dashed=1;dashPattern=12 12;entryX=0.998;entryY=0.515;entryDx=0;entryDy=0;entryPerimeter=0;" edge="1" parent="1" source="GmHCTYgidwJcOvD8zUk5-22" target="1lQt2iCKs8pIlGNOvXYT-43">
          <mxGeometry relative="1" as="geometry">
            <mxPoint x="640.0000000000002" y="630.0434782608697" as="targetPoint" />
          </mxGeometry>
        </mxCell>
        <mxCell id="GmHCTYgidwJcOvD8zUk5-22" value="wn" style="rounded=1;whiteSpace=wrap;html=1;shadow=0;dashed=1;dashPattern=12 12;fontStyle=1" parent="1" vertex="1">
          <mxGeometry x="451" y="600" width="120" height="60" as="geometry" />
        </mxCell>
        <mxCell id="1lQt2iCKs8pIlGNOvXYT-22" style="edgeStyle=orthogonalEdgeStyle;rounded=0;orthogonalLoop=1;jettySize=auto;html=1;exitX=1;exitY=0.5;exitDx=0;exitDy=0;entryX=0;entryY=0.5;entryDx=0;entryDy=0;fontStyle=1" edge="1" parent="1" source="GmHCTYgidwJcOvD8zUk5-25" target="3E_d9uGPmS8snrze4PGS-29">
          <mxGeometry relative="1" as="geometry" />
        </mxCell>
        <mxCell id="GmHCTYgidwJcOvD8zUk5-25" value="" style="ellipse;whiteSpace=wrap;html=1;fontStyle=1" parent="1" vertex="1">
          <mxGeometry x="785" y="615" width="30" height="30" as="geometry" />
        </mxCell>
        <mxCell id="1lQt2iCKs8pIlGNOvXYT-37" style="edgeStyle=orthogonalEdgeStyle;rounded=0;orthogonalLoop=1;jettySize=auto;html=1;exitX=0.5;exitY=1;exitDx=0;exitDy=0;entryX=0.5;entryY=0;entryDx=0;entryDy=0;fontStyle=1" edge="1" parent="1" source="GmHCTYgidwJcOvD8zUk5-28" target="1lQt2iCKs8pIlGNOvXYT-10">
          <mxGeometry relative="1" as="geometry" />
        </mxCell>
        <mxCell id="1lQt2iCKs8pIlGNOvXYT-54" style="edgeStyle=orthogonalEdgeStyle;rounded=0;orthogonalLoop=1;jettySize=auto;html=1;exitX=1;exitY=0.5;exitDx=0;exitDy=0;dashed=1;dashPattern=12 12;entryX=1;entryY=0.5;entryDx=0;entryDy=0;" edge="1" parent="1" source="GmHCTYgidwJcOvD8zUk5-28" target="1lQt2iCKs8pIlGNOvXYT-42">
          <mxGeometry relative="1" as="geometry">
            <mxPoint x="640.0000000000002" y="970.0434782608697" as="targetPoint" />
            <Array as="points">
              <mxPoint x="600" y="970" />
              <mxPoint x="600" y="970" />
            </Array>
          </mxGeometry>
        </mxCell>
        <mxCell id="GmHCTYgidwJcOvD8zUk5-28" value="wn" style="rounded=1;whiteSpace=wrap;html=1;shadow=0;dashed=1;dashPattern=12 12;fontStyle=1" parent="1" vertex="1">
          <mxGeometry x="451" y="940" width="120" height="60" as="geometry" />
        </mxCell>
        <mxCell id="GmHCTYgidwJcOvD8zUk5-46" value="t &amp;lt; t1" style="edgeLabel;html=1;align=center;verticalAlign=middle;resizable=0;points=[];fontStyle=1" parent="1" vertex="1" connectable="0">
          <mxGeometry x="370.003183680173" y="890" as="geometry">
            <mxPoint x="2" y="-1" as="offset" />
          </mxGeometry>
        </mxCell>
        <mxCell id="GmHCTYgidwJcOvD8zUk5-47" value="t &amp;gt;= t1 and t &amp;lt; t2&amp;nbsp;" style="edgeLabel;html=1;align=center;verticalAlign=middle;resizable=0;points=[];fontStyle=1" parent="1" vertex="1" connectable="0">
          <mxGeometry x="390" y="959.9981080405579" as="geometry">
            <mxPoint x="-1" y="-3" as="offset" />
          </mxGeometry>
        </mxCell>
        <mxCell id="GmHCTYgidwJcOvD8zUk5-52" value="if" style="rhombus;whiteSpace=wrap;html=1;fontStyle=1" parent="1" vertex="1">
          <mxGeometry x="260" y="235" width="50" height="40" as="geometry" />
        </mxCell>
        <mxCell id="GmHCTYgidwJcOvD8zUk5-53" value="if" style="rhombus;whiteSpace=wrap;html=1;fontStyle=1" parent="1" vertex="1">
          <mxGeometry x="260" y="610" width="50" height="40" as="geometry" />
        </mxCell>
        <mxCell id="1lQt2iCKs8pIlGNOvXYT-9" style="edgeStyle=orthogonalEdgeStyle;rounded=0;orthogonalLoop=1;jettySize=auto;html=1;exitX=1;exitY=0.5;exitDx=0;exitDy=0;entryX=0;entryY=0.5;entryDx=0;entryDy=0;dashed=1;dashPattern=12 12;fontStyle=1" edge="1" parent="1" source="GmHCTYgidwJcOvD8zUk5-54" target="GmHCTYgidwJcOvD8zUk5-28">
          <mxGeometry relative="1" as="geometry" />
        </mxCell>
        <mxCell id="GmHCTYgidwJcOvD8zUk5-54" value="if" style="rhombus;whiteSpace=wrap;html=1;fontStyle=1" parent="1" vertex="1">
          <mxGeometry x="260" y="950" width="50" height="40" as="geometry" />
        </mxCell>
        <mxCell id="1lQt2iCKs8pIlGNOvXYT-61" style="rounded=0;orthogonalLoop=1;jettySize=auto;html=1;exitX=1;exitY=0.5;exitDx=0;exitDy=0;dashed=1;dashPattern=12 12;entryX=0.995;entryY=0.502;entryDx=0;entryDy=0;entryPerimeter=0;" edge="1" parent="1" source="1lQt2iCKs8pIlGNOvXYT-1" target="1lQt2iCKs8pIlGNOvXYT-44">
          <mxGeometry relative="1" as="geometry">
            <mxPoint x="640.0000000000002" y="260" as="targetPoint" />
          </mxGeometry>
        </mxCell>
        <mxCell id="1lQt2iCKs8pIlGNOvXYT-1" value="wn3" style="rounded=1;whiteSpace=wrap;html=1;shadow=0;dashed=1;dashPattern=12 12;fontStyle=1" vertex="1" parent="1">
          <mxGeometry x="436" y="330" width="120" height="60" as="geometry" />
        </mxCell>
        <mxCell id="1lQt2iCKs8pIlGNOvXYT-4" value="" style="endArrow=classic;html=1;rounded=0;entryX=0;entryY=0.5;entryDx=0;entryDy=0;dashed=1;dashPattern=12 12;exitX=1;exitY=0.5;exitDx=0;exitDy=0;fontStyle=1" edge="1" parent="1" source="GmHCTYgidwJcOvD8zUk5-52" target="1lQt2iCKs8pIlGNOvXYT-1">
          <mxGeometry width="50" height="50" relative="1" as="geometry">
            <mxPoint x="310" y="140" as="sourcePoint" />
            <mxPoint x="450" y="200" as="targetPoint" />
          </mxGeometry>
        </mxCell>
        <mxCell id="1lQt2iCKs8pIlGNOvXYT-58" style="rounded=0;orthogonalLoop=1;jettySize=auto;html=1;exitX=1;exitY=0.5;exitDx=0;exitDy=0;dashed=1;dashPattern=12 12;entryX=0.998;entryY=0.517;entryDx=0;entryDy=0;entryPerimeter=0;" edge="1" parent="1" source="1lQt2iCKs8pIlGNOvXYT-6" target="1lQt2iCKs8pIlGNOvXYT-43">
          <mxGeometry relative="1" as="geometry">
            <mxPoint x="640.0000000000002" y="630" as="targetPoint" />
          </mxGeometry>
        </mxCell>
        <mxCell id="1lQt2iCKs8pIlGNOvXYT-6" value="wn" style="rounded=1;whiteSpace=wrap;html=1;shadow=0;dashed=1;dashPattern=12 12;fontStyle=1" vertex="1" parent="1">
          <mxGeometry x="451" y="700" width="120" height="60" as="geometry" />
        </mxCell>
        <mxCell id="1lQt2iCKs8pIlGNOvXYT-8" value="" style="endArrow=classic;html=1;rounded=0;entryX=0;entryY=0.5;entryDx=0;entryDy=0;dashed=1;dashPattern=12 12;exitX=1;exitY=0.5;exitDx=0;exitDy=0;fontStyle=1" edge="1" parent="1" source="GmHCTYgidwJcOvD8zUk5-53" target="1lQt2iCKs8pIlGNOvXYT-6">
          <mxGeometry width="50" height="50" relative="1" as="geometry">
            <mxPoint x="305" y="490" as="sourcePoint" />
            <mxPoint x="450" y="530" as="targetPoint" />
          </mxGeometry>
        </mxCell>
        <mxCell id="1lQt2iCKs8pIlGNOvXYT-55" style="rounded=0;orthogonalLoop=1;jettySize=auto;html=1;exitX=1;exitY=0.5;exitDx=0;exitDy=0;dashed=1;dashPattern=12 12;entryX=1;entryY=0.5;entryDx=0;entryDy=0;" edge="1" parent="1" source="1lQt2iCKs8pIlGNOvXYT-10" target="1lQt2iCKs8pIlGNOvXYT-42">
          <mxGeometry relative="1" as="geometry">
            <mxPoint x="640.0000000000002" y="970" as="targetPoint" />
          </mxGeometry>
        </mxCell>
        <mxCell id="1lQt2iCKs8pIlGNOvXYT-10" value="wn" style="rounded=1;whiteSpace=wrap;html=1;shadow=0;dashed=1;dashPattern=12 12;fontStyle=1" vertex="1" parent="1">
          <mxGeometry x="451" y="1030" width="120" height="60" as="geometry" />
        </mxCell>
        <mxCell id="1lQt2iCKs8pIlGNOvXYT-12" value="" style="endArrow=classic;html=1;rounded=0;dashed=1;dashPattern=12 12;exitX=1;exitY=0.5;exitDx=0;exitDy=0;entryX=0;entryY=0.5;entryDx=0;entryDy=0;fontStyle=1" edge="1" parent="1" source="GmHCTYgidwJcOvD8zUk5-54" target="1lQt2iCKs8pIlGNOvXYT-10">
          <mxGeometry width="50" height="50" relative="1" as="geometry">
            <mxPoint x="319.22" y="880" as="sourcePoint" />
            <mxPoint x="424.03" y="980" as="targetPoint" />
          </mxGeometry>
        </mxCell>
        <mxCell id="1lQt2iCKs8pIlGNOvXYT-23" value="qDesired" style="text;html=1;align=center;verticalAlign=middle;resizable=0;points=[];autosize=1;strokeColor=none;fillColor=none;fontStyle=1" vertex="1" parent="1">
          <mxGeometry x="880" y="600" width="70" height="30" as="geometry" />
        </mxCell>
        <mxCell id="1lQt2iCKs8pIlGNOvXYT-25" value="t &amp;gt; t2" style="edgeLabel;html=1;align=center;verticalAlign=middle;resizable=0;points=[];fontStyle=1" vertex="1" connectable="0" parent="1">
          <mxGeometry x="370" y="1041" as="geometry">
            <mxPoint x="2" y="-1" as="offset" />
          </mxGeometry>
        </mxCell>
        <mxCell id="1lQt2iCKs8pIlGNOvXYT-26" value="t &amp;lt; t1" style="edgeLabel;html=1;align=center;verticalAlign=middle;resizable=0;points=[];fontStyle=1" vertex="1" connectable="0" parent="1">
          <mxGeometry x="360.003183680173" y="554.66" as="geometry">
            <mxPoint x="2" y="-1" as="offset" />
          </mxGeometry>
        </mxCell>
        <mxCell id="1lQt2iCKs8pIlGNOvXYT-27" value="t &amp;gt;= t1 and t &amp;lt; t2&amp;nbsp;" style="edgeLabel;html=1;align=center;verticalAlign=middle;resizable=0;points=[];fontStyle=1" vertex="1" connectable="0" parent="1">
          <mxGeometry x="380" y="624.6581080405579" as="geometry">
            <mxPoint x="-1" y="-3" as="offset" />
          </mxGeometry>
        </mxCell>
        <mxCell id="1lQt2iCKs8pIlGNOvXYT-28" value="t &amp;gt; t2" style="edgeLabel;html=1;align=center;verticalAlign=middle;resizable=0;points=[];fontStyle=1" vertex="1" connectable="0" parent="1">
          <mxGeometry x="360" y="705.66" as="geometry">
            <mxPoint x="2" y="-3" as="offset" />
          </mxGeometry>
        </mxCell>
        <mxCell id="1lQt2iCKs8pIlGNOvXYT-29" value="t &amp;lt; t1" style="edgeLabel;html=1;align=center;verticalAlign=middle;resizable=0;points=[];fontStyle=1" vertex="1" connectable="0" parent="1">
          <mxGeometry x="360.003183680173" y="179" as="geometry">
            <mxPoint x="2" y="-1" as="offset" />
          </mxGeometry>
        </mxCell>
        <mxCell id="1lQt2iCKs8pIlGNOvXYT-30" value="t &amp;gt;= t1 and t &amp;lt; t2&amp;nbsp;" style="edgeLabel;html=1;align=center;verticalAlign=middle;resizable=0;points=[];fontStyle=1" vertex="1" connectable="0" parent="1">
          <mxGeometry x="380" y="248.9981080405579" as="geometry">
            <mxPoint x="-1" y="-3" as="offset" />
          </mxGeometry>
        </mxCell>
        <mxCell id="1lQt2iCKs8pIlGNOvXYT-31" value="t &amp;gt; t2" style="edgeLabel;html=1;align=center;verticalAlign=middle;resizable=0;points=[];fontStyle=1" vertex="1" connectable="0" parent="1">
          <mxGeometry x="360" y="330" as="geometry">
            <mxPoint x="2" y="-1" as="offset" />
          </mxGeometry>
        </mxCell>
        <mxCell id="1lQt2iCKs8pIlGNOvXYT-32" value="State Update" style="edgeLabel;html=1;align=center;verticalAlign=middle;resizable=0;points=[];fontStyle=1" vertex="1" connectable="0" parent="1">
          <mxGeometry x="540" y="190" as="geometry">
            <mxPoint x="-4" y="7" as="offset" />
          </mxGeometry>
        </mxCell>
        <mxCell id="1lQt2iCKs8pIlGNOvXYT-33" value="State Update" style="edgeLabel;html=1;align=center;verticalAlign=middle;resizable=0;points=[];fontStyle=1" vertex="1" connectable="0" parent="1">
          <mxGeometry x="540" y="300" as="geometry">
            <mxPoint x="-4" y="7" as="offset" />
          </mxGeometry>
        </mxCell>
        <mxCell id="1lQt2iCKs8pIlGNOvXYT-38" value="State Update" style="edgeLabel;html=1;align=center;verticalAlign=middle;resizable=0;points=[];fontStyle=1" vertex="1" connectable="0" parent="1">
          <mxGeometry x="554" y="565" as="geometry">
            <mxPoint x="-4" y="7" as="offset" />
          </mxGeometry>
        </mxCell>
        <mxCell id="1lQt2iCKs8pIlGNOvXYT-39" value="State Update" style="edgeLabel;html=1;align=center;verticalAlign=middle;resizable=0;points=[];fontStyle=1" vertex="1" connectable="0" parent="1">
          <mxGeometry x="556" y="673" as="geometry">
            <mxPoint x="-4" y="7" as="offset" />
          </mxGeometry>
        </mxCell>
        <mxCell id="1lQt2iCKs8pIlGNOvXYT-40" value="State Update" style="edgeLabel;html=1;align=center;verticalAlign=middle;resizable=0;points=[];fontStyle=1" vertex="1" connectable="0" parent="1">
          <mxGeometry x="554" y="913" as="geometry">
            <mxPoint x="-4" y="7" as="offset" />
          </mxGeometry>
        </mxCell>
        <mxCell id="1lQt2iCKs8pIlGNOvXYT-41" value="State Update" style="edgeLabel;html=1;align=center;verticalAlign=middle;resizable=0;points=[];fontStyle=1" vertex="1" connectable="0" parent="1">
          <mxGeometry x="554" y="1007" as="geometry">
            <mxPoint x="-4" y="7" as="offset" />
          </mxGeometry>
        </mxCell>
        <mxCell id="1lQt2iCKs8pIlGNOvXYT-52" style="edgeStyle=orthogonalEdgeStyle;rounded=0;orthogonalLoop=1;jettySize=auto;html=1;exitX=1;exitY=0.5;exitDx=0;exitDy=0;entryX=0.5;entryY=1;entryDx=0;entryDy=0;" edge="1" parent="1" source="1lQt2iCKs8pIlGNOvXYT-42" target="GmHCTYgidwJcOvD8zUk5-25">
          <mxGeometry relative="1" as="geometry" />
        </mxCell>
        <mxCell id="1lQt2iCKs8pIlGNOvXYT-51" style="edgeStyle=orthogonalEdgeStyle;rounded=0;orthogonalLoop=1;jettySize=auto;html=1;exitX=0.997;exitY=0.517;exitDx=0;exitDy=0;entryX=0;entryY=0.5;entryDx=0;entryDy=0;exitPerimeter=0;" edge="1" parent="1" source="1lQt2iCKs8pIlGNOvXYT-43" target="GmHCTYgidwJcOvD8zUk5-25">
          <mxGeometry relative="1" as="geometry">
            <Array as="points">
              <mxPoint x="680" y="631" />
            </Array>
          </mxGeometry>
        </mxCell>
        <mxCell id="1lQt2iCKs8pIlGNOvXYT-50" style="edgeStyle=orthogonalEdgeStyle;rounded=0;orthogonalLoop=1;jettySize=auto;html=1;exitX=1;exitY=0.5;exitDx=0;exitDy=0;entryX=0.5;entryY=0;entryDx=0;entryDy=0;" edge="1" parent="1" source="1lQt2iCKs8pIlGNOvXYT-44" target="GmHCTYgidwJcOvD8zUk5-25">
          <mxGeometry relative="1" as="geometry" />
        </mxCell>
        <mxCell id="1lQt2iCKs8pIlGNOvXYT-45" value="&lt;span&gt;&lt;font style=&quot;font-size: 17px;&quot;&gt;Joint 1&lt;/font&gt;&lt;/span&gt;" style="text;html=1;align=center;verticalAlign=middle;whiteSpace=wrap;rounded=0;fontStyle=1" vertex="1" parent="1">
          <mxGeometry x="260" y="110" width="60" height="30" as="geometry" />
        </mxCell>
        <mxCell id="1lQt2iCKs8pIlGNOvXYT-46" value="&lt;span&gt;&lt;font style=&quot;font-size: 17px;&quot;&gt;Joint 2&lt;/font&gt;&lt;/span&gt;" style="text;html=1;align=center;verticalAlign=middle;whiteSpace=wrap;rounded=0;fontStyle=1" vertex="1" parent="1">
          <mxGeometry x="255" y="480" width="60" height="30" as="geometry" />
        </mxCell>
        <mxCell id="1lQt2iCKs8pIlGNOvXYT-47" value="&lt;span&gt;&lt;font style=&quot;font-size: 17px;&quot;&gt;Joint 3&lt;/font&gt;&lt;/span&gt;" style="text;html=1;align=center;verticalAlign=middle;whiteSpace=wrap;rounded=0;fontStyle=1" vertex="1" parent="1">
          <mxGeometry x="255" y="840" width="60" height="30" as="geometry" />
        </mxCell>
        <mxCell id="1lQt2iCKs8pIlGNOvXYT-48" value="&lt;font style=&quot;font-size: 24px;&quot;&gt;&lt;b&gt;Prefilter&lt;/b&gt;&lt;/font&gt;" style="text;html=1;align=center;verticalAlign=middle;resizable=0;points=[];autosize=1;strokeColor=none;fillColor=none;" vertex="1" parent="1">
          <mxGeometry x="410" y="15" width="110" height="40" as="geometry" />
        </mxCell>
      </root>
    </mxGraphModel>
  </diagram>
</mxfile>
